# This file uses centimeters as units for non-parametric coordinates.

mtllib Torus6.mtl
g default
v 0.295212 0.286788 -0.511322
v -0.295212 0.286788 -0.511322
v -0.590424 0.286788 -0.000000
v -0.295212 0.286788 0.511322
v 0.295212 0.286788 0.511322
v 0.590424 0.286788 0.000000
v 0.573093 0.478152 -0.992626
v -0.573093 0.478152 -0.992626
v -1.146186 0.478152 -0.000000
v -0.573093 0.478152 0.992626
v 0.573093 0.478152 0.992626
v 1.146186 0.478152 0.000000
v 0.749962 0.008726 -1.298972
v -0.749962 0.008726 -1.298972
v -1.499924 0.008726 -0.000000
v -0.749962 0.008726 1.298972
v 0.749962 0.008726 1.298972
v 1.499924 0.008726 0.000000
v 0.581392 -0.472759 -1.007000
v -0.581392 -0.472759 -1.007001
v -1.162784 -0.472759 -0.000000
v -0.581392 -0.472759 1.007001
v 0.581392 -0.472759 1.007001
v 1.162784 -0.472759 0.000000
v 0.300341 -0.300907 -0.520206
v -0.300341 -0.300907 -0.520206
v -0.600682 -0.300907 -0.000000
v -0.300341 -0.300907 0.520206
v 0.300341 -0.300907 0.520206
v 0.600682 -0.300907 0.000000
vt 0.000000 1.000000
vt 0.166667 1.000000
vt 0.333333 1.000000
vt 0.500000 1.000000
vt 0.666667 1.000000
vt 0.833333 1.000000
vt 1.000000 1.000000
vt 0.000000 0.800000
vt 0.166667 0.800000
vt 0.333333 0.800000
vt 0.500000 0.800000
vt 0.666667 0.800000
vt 0.833333 0.800000
vt 1.000000 0.800000
vt 0.000000 0.600000
vt 0.166667 0.600000
vt 0.333333 0.600000
vt 0.500000 0.600000
vt 0.666667 0.600000
vt 0.833333 0.600000
vt 1.000000 0.600000
vt 0.000000 0.400000
vt 0.166667 0.400000
vt 0.333333 0.400000
vt 0.500000 0.400000
vt 0.666667 0.400000
vt 0.833333 0.400000
vt 1.000000 0.400000
vt 0.000000 0.200000
vt 0.166667 0.200000
vt 0.333333 0.200000
vt 0.500000 0.200000
vt 0.666667 0.200000
vt 0.833333 0.200000
vt 1.000000 0.200000
vt 0.000000 0.000000
vt 0.166667 0.000000
vt 0.333333 0.000000
vt 0.500000 0.000000
vt 0.666667 0.000000
vt 0.833333 0.000000
vt 1.000000 0.000000
vn -0.000000 0.929245 0.369464
vn -0.000000 0.929245 0.369464
vn -0.000000 0.929245 0.369464
vn -0.000000 0.929245 0.369464
vn 0.319965 0.929245 0.184732
vn 0.319965 0.929245 0.184732
vn 0.319965 0.929245 0.184732
vn 0.319965 0.929245 0.184732
vn 0.319965 0.929245 -0.184732
vn 0.319965 0.929245 -0.184732
vn 0.319965 0.929245 -0.184732
vn 0.319965 0.929245 -0.184732
vn 0.000000 0.929245 -0.369463
vn 0.000000 0.929245 -0.369464
vn 0.000000 0.929245 -0.369464
vn 0.000000 0.929245 -0.369463
vn -0.319965 0.929245 -0.184732
vn -0.319965 0.929245 -0.184732
vn -0.319965 0.929245 -0.184732
vn -0.319965 0.929245 -0.184732
vn -0.319965 0.929245 0.184732
vn -0.319965 0.929245 0.184732
vn -0.319965 0.929245 0.184732
vn -0.319965 0.929245 0.184732
vn 0.000000 0.546516 -0.837448
vn 0.000000 0.546516 -0.837448
vn 0.000000 0.546516 -0.837448
vn 0.000000 0.546516 -0.837448
vn -0.725252 0.546516 -0.418725
vn -0.725252 0.546516 -0.418725
vn -0.725252 0.546516 -0.418724
vn -0.725252 0.546516 -0.418724
vn -0.725252 0.546516 0.418724
vn -0.725252 0.546516 0.418724
vn -0.725252 0.546516 0.418724
vn -0.725252 0.546516 0.418724
vn 0.000000 0.546516 0.837448
vn 0.000000 0.546516 0.837448
vn 0.000000 0.546516 0.837448
vn 0.000000 0.546516 0.837448
vn 0.725252 0.546516 0.418724
vn 0.725252 0.546516 0.418724
vn 0.725252 0.546516 0.418724
vn 0.725252 0.546516 0.418724
vn 0.725252 0.546516 -0.418724
vn 0.725252 0.546516 -0.418724
vn 0.725252 0.546516 -0.418724
vn 0.725252 0.546516 -0.418724
vn 0.000000 -0.518512 -0.855070
vn 0.000000 -0.518512 -0.855070
vn 0.000000 -0.518512 -0.855070
vn 0.000000 -0.518512 -0.855070
vn -0.740512 -0.518512 -0.427535
vn -0.740512 -0.518512 -0.427535
vn -0.740512 -0.518512 -0.427535
vn -0.740512 -0.518512 -0.427535
vn -0.740512 -0.518512 0.427535
vn -0.740512 -0.518512 0.427535
vn -0.740513 -0.518512 0.427535
vn -0.740513 -0.518512 0.427535
vn 0.000000 -0.518512 0.855070
vn 0.000000 -0.518512 0.855070
vn 0.000000 -0.518512 0.855070
vn 0.000000 -0.518512 0.855070
vn 0.740512 -0.518512 0.427535
vn 0.740512 -0.518512 0.427535
vn 0.740512 -0.518512 0.427535
vn 0.740512 -0.518512 0.427535
vn 0.740512 -0.518512 -0.427535
vn 0.740512 -0.518512 -0.427535
vn 0.740512 -0.518512 -0.427535
vn 0.740512 -0.518512 -0.427535
vn -0.000000 -0.942965 0.332892
vn -0.000000 -0.942965 0.332892
vn -0.000000 -0.942965 0.332892
vn -0.000000 -0.942965 0.332892
vn 0.288293 -0.942965 0.166446
vn 0.288293 -0.942965 0.166446
vn 0.288293 -0.942965 0.166446
vn 0.288293 -0.942965 0.166446
vn 0.288293 -0.942965 -0.166446
vn 0.288293 -0.942965 -0.166446
vn 0.288293 -0.942965 -0.166446
vn 0.288293 -0.942965 -0.166446
vn 0.000000 -0.942965 -0.332892
vn 0.000000 -0.942965 -0.332892
vn 0.000000 -0.942965 -0.332892
vn 0.000000 -0.942965 -0.332892
vn -0.288293 -0.942965 -0.166446
vn -0.288293 -0.942965 -0.166446
vn -0.288293 -0.942965 -0.166446
vn -0.288293 -0.942965 -0.166446
vn -0.288293 -0.942965 0.166446
vn -0.288293 -0.942965 0.166446
vn -0.288293 -0.942965 0.166446
vn -0.288293 -0.942965 0.166446
vn -0.000000 -0.015115 0.999886
vn -0.000000 -0.015115 0.999886
vn -0.000000 -0.015115 0.999886
vn -0.000000 -0.015115 0.999886
vn 0.865926 -0.015115 0.499943
vn 0.865926 -0.015115 0.499943
vn 0.865926 -0.015115 0.499943
vn 0.865926 -0.015115 0.499943
vn 0.865927 -0.015115 -0.499943
vn 0.865927 -0.015115 -0.499943
vn 0.865927 -0.015115 -0.499943
vn 0.865927 -0.015115 -0.499943
vn 0.000000 -0.015115 -0.999886
vn 0.000000 -0.015115 -0.999886
vn 0.000000 -0.015115 -0.999886
vn 0.000000 -0.015115 -0.999886
vn -0.865926 -0.015115 -0.499943
vn -0.865926 -0.015115 -0.499943
vn -0.865927 -0.015115 -0.499943
vn -0.865927 -0.015115 -0.499943
vn -0.865927 -0.015115 0.499943
vn -0.865927 -0.015115 0.499943
vn -0.865927 -0.015115 0.499943
vn -0.865927 -0.015115 0.499943
s off
g pTorus1
usemtl initialShadingGroup
f 2/2/1 1/1/2 7/8/3 8/9/4
f 3/3/5 2/2/6 8/9/7 9/10/8
f 4/4/9 3/3/10 9/10/11 10/11/12
f 5/5/13 4/4/14 10/11/15 11/12/16
f 6/6/17 5/5/18 11/12/19 12/13/20
f 1/7/21 6/6/22 12/13/23 7/14/24
f 8/9/25 7/8/26 13/15/27 14/16/28
f 9/10/29 8/9/30 14/16/31 15/17/32
f 10/11/33 9/10/34 15/17/35 16/18/36
f 11/12/37 10/11/38 16/18/39 17/19/40
f 12/13/41 11/12/42 17/19/43 18/20/44
f 7/14/45 12/13/46 18/20/47 13/21/48
f 14/16/49 13/15/50 19/22/51 20/23/52
f 15/17/53 14/16/54 20/23/55 21/24/56
f 16/18/57 15/17/58 21/24/59 22/25/60
f 17/19/61 16/18/62 22/25/63 23/26/64
f 18/20/65 17/19/66 23/26/67 24/27/68
f 13/21/69 18/20/70 24/27/71 19/28/72
f 20/23/73 19/22/74 25/29/75 26/30/76
f 21/24/77 20/23/78 26/30/79 27/31/80
f 22/25/81 21/24/82 27/31/83 28/32/84
f 23/26/85 22/25/86 28/32/87 29/33/88
f 24/27/89 23/26/90 29/33/91 30/34/92
f 19/28/93 24/27/94 30/34/95 25/35/96
f 26/30/97 25/29/98 1/36/99 2/37/100
f 27/31/101 26/30/102 2/37/103 3/38/104
f 28/32/105 27/31/106 3/38/107 4/39/108
f 29/33/109 28/32/110 4/39/111 5/40/112
f 30/34/113 29/33/114 5/40/115 6/41/116
f 25/35/117 30/34/118 6/41/119 1/42/120
